<svg xmlns="http://www.w3.org/2000/svg" width="33" height="33" viewBox="0 0 33 33">
    <path data-name="사각형 5106" style="fill:none" d="M0 0h33v33H0z"/>
    <g data-name="그룹 16118">
        <path data-name="패스 635" d="M13187.352 74.417h-22.8a1.5 1.5 0 0 1 0-3h22.8a1.5 1.5 0 0 1 0 3z" transform="translate(-13159.449 -65.457)" style="fill:#0077ed"/>
        <path data-name="패스 636" d="M13187.352 74.417h-22.8a1.5 1.5 0 0 1 0-3h22.8a1.5 1.5 0 0 1 0 3z" transform="translate(-13159.449 -56.243)" style="fill:#0077ed"/>
        <path data-name="패스 637" d="M13187.352 74.417h-22.8a1.5 1.5 0 0 1 0-3h22.8a1.5 1.5 0 0 1 0 3z" transform="translate(-13159.449 -47.032)" style="fill:#0077ed"/>
    </g>
</svg>
