<svg xmlns="http://www.w3.org/2000/svg" width="130.199" height="18.038" viewBox="0 0 130.199 18.038">
    <ellipse data-name="타원 254" cx="1.594" cy="1.598" rx="1.594" ry="1.598" transform="translate(100.463 14.553)"/>
    <path data-name="패스 1986" d="m85.723 3.369.025 4.174h9.606v2.692h-9.615l-.012 4.729h9.654v2.684h-13.25V.655h13.25l-.031 2.724z"/>
    <path data-name="패스 1987" d="M108.608.618h3.514v17.029h-3.514z"/>
    <g data-name="그룹 11154">
        <path data-name="패스 1988" d="M130.199.654h-13.217v2.789h4.794v14.2h3.514v-14.2h4.909z"/>
    </g>
    <path data-name="패스 1989" d="m77.804 17.648-4.706-7.113a5.363 5.363 0 0 0 3.076-4.623c0-2.9-2.661-5.252-5.943-5.252h-6.266v.005h-.894l-.167-.006v16.989h3.6v-6.371h3.425l4.217 6.374zm-11.3-14.323h3.036a2.662 2.662 0 1 1 0 5.283h-3.036z"/>
    <g data-name="그룹 11155">
        <path data-name="패스 1990" d="M31.594.62v6.551h-8.457V.62h-3.55v17.025h3.55v-7.489h8.457v7.489h3.55V.615z"/>
        <path data-name="패스 1991" d="M13.287 9.593a5.025 5.025 0 0 0-1.755-1.084 15.767 15.767 0 0 0-2.158-.8l-2.281-.688c-1.659-.5-2.488-1.523-2.488-2.345a1.7 1.7 0 0 1 .889-1.443 4.02 4.02 0 0 1 1.916-.465c1.547 0 2.828.78 3.054 1.8l3.4.019V4.55A4.18 4.18 0 0 0 10.776.587a9.607 9.607 0 0 0-3.4-.583 9.2 9.2 0 0 0-3.835.768A4.142 4.142 0 0 0 .967 4.55v.037a4.089 4.089 0 0 0 1.99 3.472 9.452 9.452 0 0 0 2.719 1.306l2.315.6a11.366 11.366 0 0 1 1.481.573 5.1 5.1 0 0 1 .771.452 2.278 2.278 0 0 1 .9 1.819 2.309 2.309 0 0 1-.76 1.7 4.338 4.338 0 0 1-2.968.937 5.352 5.352 0 0 1-2.279-.464 2.384 2.384 0 0 1-1.5-2.174l-3.645.059a4.674 4.674 0 0 0 2.934 4.263 10.5 10.5 0 0 0 4.469.909c2.547 0 4.751-.748 5.819-1.837a4.551 4.551 0 0 0 1.468-2.907 4.791 4.791 0 0 0 .045-.636 3.839 3.839 0 0 0-1.288-2.929c-.041-.044-.098-.091-.151-.137z"/>
    </g>
    <path data-name="패스 1992" d="M139.265 292.38h3.809l5.482-10.645 5.187 10.645h3.871l-8.461-17.164h-1.147z" transform="translate(-99.391 -274.73)" style="fill:#0077ed"/>
</svg>
